<?xml version="1.0" encoding="utf-8"?>
<!-- Generator: Adobe Illustrator 26.5.0, SVG Export Plug-In . SVG Version: 6.00 Build 0)  -->
<svg version="1.1" id="Layer_1" xmlns="http://www.w3.org/2000/svg" xmlns:xlink="http://www.w3.org/1999/xlink" x="0px" y="0px"
	 viewBox="0 0 123.17 153" style="enable-background:new 0 0 123.17 153;" xml:space="preserve">
<style type="text/css">
	.st0{fill:none;stroke:#5B6A4A;stroke-width:8.5039;stroke-linecap:round;stroke-linejoin:round;stroke-miterlimit:10;}
	.st1{fill:#5B6A4A;stroke:#5B6A4A;stroke-miterlimit:10;}
	.st2{fill:#FFFFFF;stroke:#5B6A4A;stroke-miterlimit:10;}
</style>
<g>
	<path class="st0" d="M24.48,93.5l13-62c0,0,5.5-14.5,21-14.5s19,11,19,11c10.84,38.7,10.68,38.59,12.5,49.5
		c3.5,22.5-14.71,41.21-22.5,41c-26,0-22.62,0.25-27.38-1.12S20.9,110.59,24.48,93.5z"/>
	<path class="st0" d="M52.15,36c0-3.22,3.13-5.83,7-5.83c3.87,0,7,2.61,7,5.83"/>
	<path class="st1" d="M75.73,22.75l42.35,2.5c0,0,1.25,0.25,1.25,2s-2.15,1.62-2.15,1.62l-36.92,7.88L75.73,22.75z"/>
	<path class="st2" d="M80.98,87.75"/>
	<path class="st0" d="M62.84,62.62c0,0,4.04,8.06,2.08,9.58c-1.97,1.52-13.4,0-13.4,0"/>
	<path class="st0" d="M67.45,118.51c1.95,5.5,10.21,16.58,17.7,20.49"/>
	<line class="st0" x1="48.44" y1="118.5" x2="46.48" y2="136.5"/>
	<line class="st0" x1="23.92" y1="139" x2="99.8" y2="139"/>
</g>
</svg>
